<?xml version="1.0" standalone="no"?>
<!DOCTYPE svg PUBLIC "-//W3C//DTD SVG 20010904//EN"
 "http://www.w3.org/TR/2001/REC-SVG-20010904/DTD/svg10.dtd">
<svg version="1.0" xmlns="http://www.w3.org/2000/svg"
 width="916.000000pt" height="892.000000pt" viewBox="0 0 916.000000 892.000000"
 preserveAspectRatio="xMidYMid meet">

<g transform="translate(0.000000,892.000000) scale(0.100000,-0.100000)"
fill="#000000" stroke="none">
<path d="M2977 6133 l-87 -4 2 -767 3 -767 773 -3 772 -2 0 775 0 775 -687 -2
c-379 -1 -727 -4 -776 -5z m892 -429 c50 -18 52 -21 48 -49 -3 -16 -15 -52
-26 -79 l-21 -48 -43 6 c-23 4 -75 9 -115 12 l-73 6 -39 -40 c-32 -34 -40 -51
-46 -98 -10 -86 0 -177 26 -219 41 -66 113 -78 243 -41 32 9 60 16 63 16 3 0
3 -41 2 -91 l-3 -92 -50 -14 c-81 -24 -198 -28 -255 -9 -27 9 -55 16 -63 16
-20 0 -95 68 -121 109 -48 77 -57 118 -57 246 0 122 3 140 49 230 35 71 123
139 202 156 59 13 221 3 279 -17z"/>
<path d="M5081 5591 c-13 -8 -15 -67 -15 -373 l-1 -363 97 -3 97 -3 3 118 3
118 75 6 c142 11 220 69 247 183 32 136 -3 234 -105 289 -49 27 -60 28 -219
33 -105 3 -173 2 -182 -5z m276 -167 c29 -8 48 -70 33 -109 -16 -43 -35 -55
-84 -55 l-46 0 0 85 0 85 38 0 c20 0 47 -3 59 -6z"/>
<path d="M1054 4496 c-16 -12 -19 -26 -18 -88 0 -73 14 -113 55 -166 12 -16
16 -33 12 -56 -4 -26 0 -39 17 -56 12 -12 28 -37 36 -56 8 -19 18 -34 22 -34
5 0 23 -22 41 -49 30 -48 60 -69 80 -57 28 18 113 271 103 308 -11 43 -44 88
-63 88 -38 0 -104 43 -171 111 -37 38 -74 69 -81 69 -7 0 -22 -6 -33 -14z"/>
<path d="M4652 4333 l-122 -4 2 -767 3 -767 766 -3 766 -2 7 37 c3 21 6 367 6
769 l0 732 -22 6 c-23 6 -1166 5 -1406 -1z m766 -776 l2 -378 -107 3 -108 3
-3 365 c-1 201 0 371 3 378 3 9 31 12 107 10 l103 -3 3 -378z"/>
<path d="M3516 4078 c-9 -12 -16 -29 -16 -37 0 -7 -12 -50 -26 -95 -14 -45
-37 -119 -51 -166 -15 -47 -52 -163 -83 -257 -31 -95 -55 -175 -52 -178 3 -3
52 -5 108 -5 l103 0 17 58 c9 31 18 63 20 70 2 9 36 12 123 12 l120 0 10 -37
c5 -21 11 -51 13 -68 l3 -30 114 -3 c105 -2 113 -1 106 15 -3 10 -18 56 -31
103 -35 120 -74 239 -90 278 -8 18 -14 39 -14 47 0 8 -6 29 -14 47 -14 34 -34
97 -56 178 -26 97 -13 90 -159 90 -123 0 -131 -1 -145 -22z m154 -155 c0 -16
19 -88 46 -174 8 -26 14 -58 14 -73 0 -26 -1 -26 -70 -26 l-70 0 0 30 c0 16 6
47 14 67 8 21 22 75 32 120 11 45 22 79 26 77 5 -3 8 -12 8 -21z"/>
<path d="M3207 2418 c-37 -49 -122 -233 -146 -313 -47 -161 -58 -207 -60 -242
-1 -6 -45 -56 -98 -110 l-98 -98 -3 39 c-3 28 4 48 23 78 15 22 33 62 41 88 8
26 21 53 29 60 14 12 59 119 52 126 -9 9 -67 -9 -67 -21 0 -6 -9 -20 -19 -29
-11 -10 -25 -38 -33 -63 -8 -29 -21 -49 -35 -56 -13 -6 -23 -13 -23 -16 0 -4
-9 -7 -20 -8 -11 -1 -18 2 -15 7 8 13 -56 0 -74 -14 -11 -9 -13 -7 -7 12 6 16
2 29 -10 43 -16 17 -16 19 -1 19 10 0 17 8 17 20 0 11 -5 20 -12 20 -6 0 -8 3
-5 7 4 3 -1 12 -11 20 -9 8 -11 12 -4 8 18 -9 16 40 -3 55 -8 7 -15 18 -14 24
2 21 -13 56 -22 50 -5 -3 -9 -1 -9 3 0 5 -12 21 -27 37 -17 19 -23 31 -15 34
14 4 6 22 -9 22 -6 0 -7 -4 -4 -10 3 -5 2 -10 -4 -10 -18 0 -21 17 -6 30 30
25 23 28 -96 46 -20 3 -46 1 -58 -6 -25 -13 -52 -3 -30 11 10 6 11 9 2 9 -7 0
-35 14 -61 30 -27 17 -56 30 -65 30 -23 0 -30 16 -17 42 10 21 10 22 -4 5 -14
-18 -16 -17 -53 6 -49 31 -80 41 -88 27 -3 -6 -31 -29 -61 -51 -31 -22 -70
-55 -88 -72 -18 -18 -48 -44 -66 -58 l-34 -26 22 -35 c24 -38 28 -78 11 -95
-7 -7 -2 -25 17 -59 15 -27 31 -50 36 -52 4 -2 8 -10 8 -17 0 -7 16 -26 36
-42 l36 -29 -17 -35 c-10 -19 -21 -36 -24 -39 -4 -3 -49 -63 -101 -135 -52
-71 -99 -134 -105 -140 -7 -5 -27 -30 -46 -55 -82 -108 -170 -195 -232 -227
-56 -31 -112 -31 -129 0 -16 29 -15 175 2 247 14 62 61 183 92 238 106 192
237 322 348 346 38 9 49 19 56 53 6 30 4 32 -30 38 -26 5 -46 2 -73 -13 -131
-68 -167 -82 -218 -82 -24 0 -46 4 -49 9 -8 12 71 91 131 132 26 18 50 35 53
38 9 11 75 38 108 45 30 7 32 6 32 -18 0 -22 4 -26 30 -26 23 0 31 5 36 25 3
14 10 22 15 19 5 -3 9 8 9 25 0 39 -45 66 -100 58 -46 -6 -140 -51 -205 -98
-64 -46 -163 -153 -171 -184 -14 -57 19 -85 102 -85 24 0 44 -3 44 -6 0 -4
-12 -21 -27 -40 -99 -119 -90 -106 -146 -219 -64 -129 -107 -247 -107 -296 0
-16 -7 -46 -15 -67 -15 -36 -15 -43 4 -93 11 -30 35 -71 53 -93 l32 -39 61 6
c50 5 73 14 121 46 71 47 185 158 251 244 26 34 53 67 59 72 7 6 33 39 59 75
l46 65 -7 -95 c-15 -193 -4 -392 27 -496 5 -17 12 -41 14 -54 6 -33 36 -61 59
-58 20 3 21 11 27 234 3 127 9 236 13 242 6 11 31 11 42 -1 4 -3 1 -13 -5 -21
-13 -15 -30 -160 -31 -253 0 -48 3 -55 43 -95 23 -24 47 -52 52 -62 9 -16 14
-17 33 -7 26 14 102 6 143 -15 15 -7 41 -31 60 -53 40 -49 71 -61 161 -61 43
0 83 -6 103 -16 30 -14 36 -14 64 0 44 23 151 133 151 156 0 26 45 59 90 66
30 5 42 14 58 43 11 20 43 58 71 84 58 56 63 78 31 151 -24 54 -46 239 -43
366 2 80 14 126 52 190 15 25 51 108 113 263 50 126 59 156 56 200 -3 48 -5
52 -30 55 -20 2 -32 -5 -51 -30z m-473 -577 c3 -5 0 -14 -8 -20 -11 -9 -18 -8
-30 4 -9 9 -16 18 -16 21 0 8 49 4 54 -5z m261 -153 c-2 -24 -4 -63 -5 -88
l-1 -45 -19 41 c-10 22 -26 47 -35 54 -14 12 -12 17 17 47 17 18 35 33 39 33
4 0 6 -19 4 -42z m2 -200 c-2 -13 -4 -3 -4 22 0 25 2 35 4 23 2 -13 2 -33 0
-45z"/>
<path d="M2208 2423 c7 -3 16 -2 19 1 4 3 -2 6 -13 5 -11 0 -14 -3 -6 -6z"/>
<path d="M2156 2405 c4 -8 7 -15 9 -15 2 0 5 7 9 15 3 9 0 15 -9 15 -9 0 -12
-6 -9 -15z"/>
<path d="M6254 2398 c-52 -59 -92 -130 -114 -201 l-12 -38 -111 6 c-115 7
-251 -8 -327 -35 -19 -7 -41 -15 -48 -16 -8 -3 -12 -16 -10 -36 2 -28 8 -34
31 -36 15 -2 27 1 27 6 0 22 70 40 178 47 l112 7 11 -31 c13 -36 35 -40 72
-11 35 28 39 25 23 -17 -21 -60 -46 -148 -46 -166 0 -46 -81 -152 -141 -183
-41 -21 -59 -5 -59 52 l0 44 39 0 c32 0 44 5 60 28 27 38 34 73 22 105 -9 22
-17 27 -47 27 -37 0 -50 -10 -121 -93 -17 -20 -35 -37 -39 -37 -4 0 -29 -18
-55 -40 -66 -55 -82 -53 -58 7 47 117 43 193 -10 193 -16 0 -36 -10 -48 -22
-26 -30 -104 -162 -122 -208 -19 -49 -61 -207 -67 -255 -11 -75 -15 -49 -9 55
4 58 13 129 21 158 8 29 13 58 12 65 -3 12 8 55 38 147 21 66 19 92 -7 88 -24
-3 -26 -6 -64 -98 -19 -48 -43 -82 -93 -132 -36 -38 -70 -68 -75 -68 -5 0 -6
28 -2 63 5 52 3 66 -13 86 -16 20 -22 22 -40 12 -11 -6 -24 -20 -27 -31 -3
-11 -11 -20 -16 -20 -13 0 -11 34 5 72 41 99 40 148 -3 148 -25 0 -45 -26
-102 -140 -20 -40 -69 -151 -69 -157 0 -19 -33 -92 -40 -88 -16 10 31 193 72
281 15 34 28 75 28 92 0 27 -4 32 -25 32 -19 0 -26 -7 -31 -27 -4 -16 -12 -39
-19 -53 -7 -14 -20 -41 -29 -61 -13 -30 -22 -37 -53 -43 -67 -11 -81 -8 -85
17 -2 18 -10 23 -43 25 -51 4 -56 -1 -157 -158 -134 -207 -290 -400 -324 -400
-20 0 -50 66 -64 142 -28 154 39 473 133 633 47 80 167 205 196 205 17 0 13
-18 -9 -40 -11 -11 -20 -26 -20 -34 0 -44 78 -5 106 54 15 30 15 37 3 60 -20
35 -58 37 -120 5 -88 -44 -172 -139 -234 -266 -103 -209 -149 -479 -111 -656
17 -79 43 -123 88 -147 30 -17 39 -18 65 -7 56 23 151 128 248 274 44 67 60
78 70 48 3 -12 18 -24 32 -27 22 -6 31 -1 54 27 15 19 36 52 45 74 46 109 40
102 91 108 27 3 50 4 52 1 2 -2 -4 -32 -13 -68 -20 -82 -20 -153 -1 -200 14
-33 19 -37 48 -34 22 2 35 10 43 28 17 35 40 97 55 150 19 66 29 71 29 12 0
-51 1 -52 30 -52 24 0 35 8 57 43 l26 42 13 -30 c7 -16 13 -36 14 -42 0 -8 14
-13 38 -13 27 0 46 8 71 30 61 54 66 41 45 -102 -12 -80 -15 -144 -11 -220 8
-132 34 -304 53 -340 14 -26 50 -46 62 -33 4 3 7 99 8 213 1 241 6 272 38 272
24 0 56 28 56 49 0 17 219 233 232 229 6 -2 18 -22 27 -45 25 -62 38 -73 89
-73 33 0 54 7 78 25 18 14 36 25 40 25 4 0 4 -53 1 -117 -13 -241 36 -394 113
-353 32 17 26 56 -11 69 -27 9 -31 15 -26 37 2 14 1 60 -4 102 -6 49 -5 119 1
192 11 121 20 159 50 225 11 22 24 51 29 65 6 14 28 57 48 95 l38 70 100 -4
c55 -2 102 -5 104 -7 2 -1 -7 -47 -19 -101 l-23 -98 -101 -102 c-56 -57 -104
-103 -108 -103 -19 0 -5 68 28 133 22 44 33 79 30 92 -4 16 1 25 19 35 25 13
65 83 65 113 0 28 -21 30 -44 5 -28 -31 -56 -82 -56 -102 0 -8 -13 -28 -29
-45 -36 -37 -69 -104 -82 -172 -14 -67 -1 -105 37 -115 34 -9 104 12 104 32 0
8 11 19 24 24 13 4 32 20 44 34 11 14 24 26 29 26 4 0 8 -91 9 -202 0 -189 2
-206 23 -250 20 -44 25 -48 56 -48 32 0 35 3 35 28 0 21 -7 32 -24 40 -31 14
-36 45 -36 214 0 189 15 250 102 426 66 133 73 142 99 142 16 0 29 -3 29 -6 0
-3 -14 -33 -31 -65 -29 -54 -33 -89 -10 -89 16 0 81 91 81 114 0 39 11 42 140
42 149 0 190 14 190 64 0 34 -19 39 -60 15 -34 -20 -268 -21 -294 -2 -22 16
-19 44 12 125 19 48 27 100 23 145 -1 13 -10 17 -36 17 -53 0 -97 -59 -179
-239 -10 -23 -13 -23 -101 -16 -49 4 -92 8 -93 10 -4 3 19 59 43 105 7 14 12
50 11 80 l-1 55 -35 3 c-27 2 -41 -3 -56 -20z m-867 -1295 c-3 -10 -5 -4 -5
12 0 17 2 24 5 18 2 -7 2 -21 0 -30z"/>
<path d="M2258 2363 c7 -3 16 -2 19 1 4 3 -2 6 -13 5 -11 0 -14 -3 -6 -6z"/>
<path d="M2495 2280 c-3 -5 -1 -10 4 -10 6 0 11 5 11 10 0 6 -2 10 -4 10 -3 0
-8 -4 -11 -10z"/>
<path d="M2580 2220 c20 -13 33 -13 25 0 -3 6 -14 10 -23 10 -15 0 -15 -2 -2
-10z"/>
<path d="M2685 2150 c3 -5 8 -10 11 -10 2 0 4 5 4 10 0 6 -5 10 -11 10 -5 0
-7 -4 -4 -10z"/>
<path d="M2725 2151 c-6 -11 13 -26 22 -17 4 3 1 6 -6 6 -7 0 -9 5 -6 10 3 6
4 10 1 10 -3 0 -7 -4 -11 -9z"/>
<path d="M7501 2035 c-67 -39 -110 -86 -261 -291 -16 -21 -34 -33 -49 -34 -23
0 -24 2 -17 53 3 28 9 89 12 135 l7 82 -25 0 c-15 0 -32 -9 -41 -22 -16 -23
-16 -23 -16 -2 -1 12 -8 27 -16 34 -20 17 -38 1 -65 -58 -19 -41 -27 -49 -70
-62 l-48 -16 -16 33 c-13 28 -21 33 -48 33 -38 -1 -52 -11 -92 -65 -43 -59
-193 -205 -211 -205 -8 0 -15 8 -15 19 0 23 35 103 67 155 l25 39 -21 21 -21
21 -25 -30 c-52 -64 -79 -132 -79 -200 0 -36 4 -68 8 -72 4 -5 30 -8 56 -8 46
0 53 4 103 53 l53 52 12 -45 c12 -46 12 -46 53 -43 39 3 44 7 68 53 15 28 32
69 39 92 12 39 15 42 64 52 28 6 53 9 56 6 3 -3 0 -52 -7 -110 -15 -125 -5
-175 35 -175 28 0 48 34 59 100 4 25 14 61 22 80 l15 35 14 -46 c16 -54 45
-72 84 -55 25 11 110 94 110 109 0 10 28 9 64 -3 17 -5 52 -12 78 -15 41 -5
51 -12 78 -48 35 -48 38 -62 10 -45 -26 16 -45 5 -82 -48 -34 -47 -36 -116 -4
-122 38 -8 135 113 137 170 0 21 23 44 163 160 21 18 27 29 22 45 -7 23 -36
39 -45 25 -3 -5 -35 -33 -71 -63 -36 -29 -66 -57 -68 -61 -7 -15 -33 -8 -59
16 -14 13 -39 27 -56 30 -17 4 -48 11 -69 17 l-39 10 32 40 c43 54 106 119
116 119 24 1 44 29 37 54 -8 32 -8 32 -63 1z"/>
<path d="M2815 2030 c-3 -5 -1 -10 4 -10 6 0 11 5 11 10 0 6 -2 10 -4 10 -3 0
-8 -4 -11 -10z"/>
<path d="M3447 1968 c-8 -18 -19 -44 -24 -57 -7 -19 -21 -27 -62 -37 -52 -11
-52 -11 -67 17 -12 24 -21 29 -54 29 -31 0 -42 -5 -58 -27 -73 -105 -103 -241
-62 -278 17 -15 66 -24 74 -14 19 26 66 114 80 152 14 36 23 47 39 47 12 0 32
3 45 6 l22 6 -6 -130 -7 -130 25 -16 c28 -18 55 -13 62 12 2 10 9 40 16 67 6
28 16 68 22 90 l11 40 14 -46 c13 -44 40 -69 78 -69 23 0 161 156 178 202 3 9
-1 24 -9 35 -14 17 -16 16 -47 -21 -17 -22 -53 -61 -79 -88 l-47 -48 -6 32
c-4 18 -5 78 -3 133 3 99 3 100 -21 103 -17 3 -30 -4 -43 -20 -17 -22 -18 -22
-18 -2 0 19 -17 44 -30 44 -4 0 -14 -15 -23 -32z m44 -75 c-12 -20 -14 -14 -5
12 4 9 9 14 11 11 3 -2 0 -13 -6 -23z"/>
<path d="M2790 1950 c-5 -50 -5 -68 1 -64 12 7 16 39 8 59 -5 14 -8 15 -9 5z"/>
<path d="M2755 1880 c3 -5 8 -10 11 -10 2 0 4 5 4 10 0 6 -5 10 -11 10 -5 0
-7 -4 -4 -10z"/>
<path d="M2081 759 c-33 -20 -33 -21 -27 -72 8 -59 25 -77 71 -77 37 0 75 34
58 51 -8 8 -18 7 -34 -5 -13 -9 -26 -16 -30 -16 -11 0 -20 50 -14 71 5 16 13
18 46 13 45 -7 49 3 16 34 -29 27 -43 27 -86 1z"/>
<path d="M2216 703 c-5 -60 -3 -80 8 -91 22 -22 36 -5 36 43 0 53 8 75 26 75
16 0 19 -16 4 -25 -19 -12 -11 -73 12 -89 29 -20 53 -4 36 24 -9 14 -8 24 5
44 16 23 16 29 3 55 -18 33 -34 41 -85 41 l-38 0 -7 -77z"/>
<path d="M2379 773 c-1 -5 -3 -41 -3 -81 -2 -69 -1 -75 22 -83 49 -19 112 -6
112 23 0 4 -18 8 -40 8 -29 0 -40 4 -40 15 0 10 10 15 29 15 17 0 31 6 35 16
9 23 8 24 -23 24 -17 0 -33 5 -36 10 -4 6 8 10 29 10 32 0 36 3 36 25 0 24 -3
25 -60 25 -33 0 -61 -3 -61 -7z"/>
<path d="M2568 758 c-27 -45 -52 -138 -40 -150 9 -9 16 -7 30 5 23 21 35 21
72 2 l30 -16 -1 38 c0 21 -4 46 -8 56 -6 17 -8 17 -33 -3 -17 -13 -29 -16 -33
-10 -4 6 7 15 24 21 37 13 41 41 9 63 -29 21 -33 20 -50 -6z"/>
<path d="M2670 759 c0 -12 8 -23 19 -26 15 -4 20 -17 23 -59 8 -99 48 -99 56
0 3 42 8 55 23 59 11 3 19 14 19 26 0 19 -6 21 -70 21 -64 0 -70 -2 -70 -21z"/>
<path d="M2826 772 c-3 -6 1 -27 11 -46 15 -32 15 -38 0 -76 l-15 -40 44 0
c32 0 44 4 44 14 0 8 -4 18 -10 21 -14 8 -13 58 2 90 6 14 9 28 6 30 -11 12
-76 17 -82 7z"/>
<path d="M3032 771 c-6 -3 -13 -20 -17 -36 -13 -59 -17 -60 -31 -12 -12 39
-19 47 -39 47 -21 0 -23 -3 -15 -27 5 -16 16 -52 25 -80 14 -45 20 -53 41 -53
25 0 26 2 54 80 21 60 23 77 7 83 -7 3 -19 2 -25 -2z"/>
<path d="M3112 772 c-19 -3 -21 -7 -15 -30 10 -34 9 -70 0 -104 -7 -27 -6 -28
34 -28 35 0 40 2 33 18 -15 34 -15 87 -1 106 14 19 16 19 41 3 23 -15 26 -24
26 -72 0 -47 3 -55 19 -55 15 0 19 9 23 55 4 42 10 58 29 74 13 10 22 22 19
24 -10 10 -95 14 -111 6 -9 -5 -29 -5 -45 -1 -16 4 -39 6 -52 4z"/>
<path d="M3335 770 c-3 -5 6 -31 20 -57 14 -26 25 -60 25 -75 0 -16 2 -28 4
-28 2 0 11 -3 19 -6 11 -4 17 5 22 37 4 24 16 60 27 81 11 20 17 42 13 48 -12
19 -35 10 -46 -16 l-10 -27 -22 20 c-32 29 -45 35 -52 23z"/>
<path d="M3702 768 c-18 -18 -16 -158 3 -158 8 0 19 8 24 19 6 10 24 24 41 31
34 14 46 45 35 87 -6 27 -7 27 -21 9 -8 -11 -14 -28 -14 -38 0 -11 -7 -18 -20
-18 -11 0 -20 7 -20 15 0 8 5 15 11 15 16 0 6 44 -11 48 -9 1 -21 -3 -28 -10z"/>
<path d="M3846 748 c-22 -31 -21 -101 2 -121 23 -21 85 -22 102 -2 16 20 33
19 46 -2 9 -15 22 -17 68 -15 40 3 56 8 56 18 0 9 -12 14 -35 14 -44 0 -48 25
-4 34 39 7 34 26 -12 42 -36 13 -25 24 21 21 16 -1 26 4 28 16 3 15 -5 17 -64
17 l-67 0 5 -45 c4 -34 2 -45 -8 -45 -8 0 -14 10 -14 25 0 59 -91 90 -124 43z
m80 -45 c8 -30 -5 -56 -30 -61 -13 -3 -16 5 -16 42 0 39 3 46 20 46 13 0 22
-9 26 -27z"/>
<path d="M4130 760 c0 -6 11 -15 24 -20 22 -8 25 -16 28 -67 2 -46 7 -59 21
-61 14 -3 17 4 17 37 0 52 15 91 36 91 8 0 14 6 12 13 -6 15 -138 23 -138 7z"/>
<path d="M4292 693 c2 -64 6 -78 20 -81 14 -3 17 6 20 55 3 51 6 58 26 61 25
4 30 -15 7 -24 -35 -14 -9 -94 30 -94 28 0 30 3 14 28 -8 13 -7 27 4 54 13 32
13 39 1 57 -12 17 -26 21 -70 21 l-55 0 3 -77z"/>
<path d="M4440 765 c0 -2 10 -21 22 -42 12 -21 24 -54 27 -73 8 -45 41 -56 41
-13 0 15 11 49 25 75 14 26 25 50 25 53 0 14 -41 3 -52 -15 -7 -11 -16 -20
-20 -20 -4 0 -10 9 -13 20 -4 13 -15 20 -31 20 -13 0 -24 -2 -24 -5z"/>
<path d="M4837 753 c-3 -10 -15 -43 -26 -73 -26 -68 -22 -89 14 -66 27 18 61
21 70 6 3 -5 15 -10 27 -10 15 0 18 4 13 18 -4 9 -16 45 -27 80 -17 52 -23 62
-43 62 -13 0 -25 -7 -28 -17z m33 -68 c0 -8 -4 -15 -10 -15 -5 0 -10 7 -10 15
0 8 5 15 10 15 6 0 10 -7 10 -15z"/>
<path d="M4962 693 c3 -65 6 -78 21 -81 12 -3 17 3 17 22 0 33 13 33 30 1 8
-16 22 -25 36 -25 21 0 22 3 14 25 -6 16 -5 35 2 55 7 23 7 38 -1 56 -9 21
-17 24 -66 24 l-56 0 3 -77z m78 24 c0 -14 -19 -37 -31 -37 -3 0 -4 11 -1 25
4 25 32 36 32 12z"/>
<path d="M5110 756 c0 -8 9 -18 20 -21 17 -5 20 -15 20 -66 0 -56 1 -59 25
-59 24 0 25 3 25 58 0 47 4 60 20 70 33 20 14 32 -51 32 -44 0 -59 -3 -59 -14z"/>
<path d="M5467 743 c4 -16 8 -39 8 -53 0 -14 -4 -37 -8 -52 -7 -27 -6 -28 33
-28 39 0 40 1 33 28 -9 34 -9 58 0 100 6 32 6 32 -33 32 -39 0 -40 -1 -33 -27z"/>
<path d="M5570 691 c0 -74 2 -81 20 -81 16 0 20 7 20 30 0 38 10 38 35 0 33
-51 48 -35 49 50 1 63 -2 75 -16 78 -15 3 -18 -4 -18 -34 0 -41 -11 -38 -34 8
-6 12 -22 24 -34 26 -21 3 -22 0 -22 -77z"/>
<path d="M5740 690 c0 -64 3 -80 15 -80 10 0 15 10 15 30 0 39 19 39 45 0 34
-52 50 -36 50 50 0 63 -3 75 -17 78 -15 3 -18 -4 -18 -32 0 -38 -16 -49 -27
-18 -9 25 -34 52 -50 52 -10 0 -13 -20 -13 -80z"/>
<path d="M5919 753 c-18 -21 -16 -122 2 -134 25 -16 75 -10 94 11 23 25 16
107 -11 127 -25 18 -69 16 -85 -4z m71 -68 c0 -37 -3 -45 -18 -45 -26 0 -42
20 -42 50 0 33 7 40 37 40 21 0 23 -5 23 -45z"/>
<path d="M6050 761 c0 -4 11 -39 25 -77 14 -38 25 -70 25 -72 0 -2 10 -2 21 0
17 2 27 18 45 78 13 41 24 76 24 78 0 1 -9 2 -19 2 -15 0 -22 -12 -32 -51 -12
-45 -15 -49 -26 -33 -7 10 -13 27 -13 39 0 12 -5 26 -12 33 -14 14 -38 16 -38
3z"/>
<path d="M6253 758 c-6 -7 -13 -24 -16 -38 -3 -14 -11 -40 -18 -57 -17 -42 -3
-61 31 -43 13 7 36 9 57 5 33 -6 35 -5 30 17 -6 26 -26 86 -37 108 -10 20 -34
24 -47 8z m37 -68 c0 -19 -20 -27 -33 -13 -8 7 11 33 24 33 5 0 9 -9 9 -20z"/>
<path d="M6364 759 c-3 -6 3 -13 15 -16 15 -4 22 -16 26 -47 4 -23 5 -51 3
-62 -2 -13 4 -20 20 -22 21 -3 22 0 22 61 0 61 1 65 26 71 39 10 57 -10 52
-58 -3 -23 -8 -49 -12 -58 -7 -16 -2 -18 33 -18 40 0 55 15 26 26 -10 4 -15
20 -15 49 0 26 6 47 15 55 8 7 15 16 15 20 0 11 -219 10 -226 -1z"/>
<path d="M6643 753 c-18 -12 -23 -25 -23 -63 0 -40 4 -50 25 -64 31 -20 54
-20 83 0 18 12 22 25 22 63 0 41 -4 51 -25 65 -30 20 -53 20 -82 -1z m70 -42
c13 -53 -19 -91 -51 -59 -13 13 -16 60 -5 71 14 15 51 7 56 -12z"/>
<path d="M6782 693 c2 -61 6 -78 18 -78 10 0 17 13 20 35 l5 35 23 -37 c14
-23 31 -38 43 -38 17 0 19 8 19 81 0 71 -2 80 -17 77 -14 -3 -17 -12 -15 -36
2 -18 1 -32 -3 -32 -3 0 -19 16 -36 35 -50 56 -60 48 -57 -42z"/>
<path d="M4672 648 c-20 -20 -14 -38 13 -38 27 0 33 21 12 39 -10 8 -17 7 -25
-1z"/>
<path d="M3550 631 c0 -27 19 -36 37 -18 18 18 9 37 -18 37 -12 0 -19 -7 -19
-19z"/>
<path d="M5330 640 c-11 -7 -12 -12 -3 -21 14 -14 46 -4 41 13 -6 16 -20 19
-38 8z"/>
</g>
</svg>
